# xmcd
#
# Track frame offsets:
#	150
#	16158
#	29744
#	47723
#	69983
#	81347
#	94865
#	108265
#	126773
#	141364
#	155015
#	170097
#	186533
#	199269
#
# Disc length: 2873 seconds
#
# Revision: 0
# Processed by: cddbd v1.5.2PL0 Copyright (c) Steve Scherf et al.
# Submitted via: EasyCDDAExtractor 15.2.5.1
#
DISCID=cc0b370e
DTITLE=Amanda Nagurney - So Full Of Country
DYEAR=2011
DGENRE=country
TTITLE0=Just Me and The Road
TTITLE1=Gone Fishin'
TTITLE2=White Dress
TTITLE3=Don't Leave Me Tonight
TTITLE4=Shop Around
TTITLE5=Mister Right
TTITLE6=Tonight I'm Gonna Drink
TTITLE7=Across The USA
TTITLE8=So Full Of Country
TTITLE9=Love Is (Always A Friend Of Mine
TTITLE10=I'm Just A Country Girl
TTITLE11=Blame It On The Drinkin
TTITLE12=Good Or Gone
TTITLE13=Gettin Out Of This Town
EXTD=
EXTT0=
EXTT1=
EXTT2=
EXTT3=
EXTT4=
EXTT5=
EXTT6=
EXTT7=
EXTT8=
EXTT9=
EXTT10=
EXTT11=
EXTT12=
EXTT13=
PLAYORDER=
